<?xml version="1.0" encoding="UTF-8"?>
<svg version="1.1" xmlns="http://www.w3.org/2000/svg" width="32" height="32">
<path d="M0 0 C0.66 0.66 1.32 1.32 2 2 C4.06874034 2.6425235 4.06874034 2.6425235 6 3 C6 3.99 6 4.98 6 6 C6.61875 6.12375 7.2375 6.2475 7.875 6.375 C10 7 10 7 12 9 C11.9765625 12.0390625 11.9765625 12.0390625 11.625 15.625 C11.45871094 17.40777344 11.45871094 17.40777344 11.2890625 19.2265625 C11.19367187 20.14179688 11.09828125 21.05703125 11 22 C8.36 22 5.72 22 3 22 C3 22.66 3 23.32 3 24 C3.66 24 4.32 24 5 24 C5 24.99 5 25.98 5 27 C2.66225534 27.39791398 0.35401206 27.72887978 -2 28 C-2.75667969 28.09152344 -3.51335938 28.18304687 -4.29296875 28.27734375 C-10.00169062 28.66940003 -10.00169062 28.66940003 -12.68359375 26.87109375 C-15.03717887 24.31748723 -15.96853922 22.22921424 -16.4375 18.8125 C-16 16 -16 16 -14 13 C-11.875 12.3125 -11.875 12.3125 -10 12 C-9.04975021 8.30458414 -9.04975021 5.69541586 -10 2 C-6.60535554 -0.08901197 -3.95158471 -0.34361606 0 0 Z " fill="#1C6563" transform="translate(18,2)"/>
<path d="M0 0 C2.64 0 5.28 0 8 0 C8 0.99 8 1.98 8 3 C8.66 3 9.32 3 10 3 C10 6.3 10 9.6 10 13 C6.7 13.33 3.4 13.66 0 14 C0 14.99 0 15.98 0 17 C0.66 17.33 1.32 17.66 2 18 C0.68 18 -0.64 18 -2 18 C-2.66 15.03 -3.32 12.06 -4 9 C-5.32 9 -6.64 9 -8 9 C-7.01 9.33 -6.02 9.66 -5 10 C-4.957279 11.66611905 -4.95936168 13.33382885 -5 15 C-5.33 15.33 -5.66 15.66 -6 16 C-5.34 16.33 -4.68 16.66 -4 17 C-4.33 17.66 -4.66 18.32 -5 19 C-7.375 19.125 -7.375 19.125 -10 19 C-12 17 -12 17 -12.375 13.8125 C-11.91484377 9.13424503 -10.54430059 6.89596028 -8 3 C-5.69 3.33 -3.38 3.66 -1 4 C-0.67 2.68 -0.34 1.36 0 0 Z " fill="#60ACA0" transform="translate(18,10)"/>
<path d="M0 0 C2.64 0 5.28 0 8 0 C8 0.99 8 1.98 8 3 C8.66 3 9.32 3 10 3 C10 5.97 10 8.94 10 12 C6.37 12 2.74 12 -1 12 C-0.67 8.04 -0.34 4.08 0 0 Z " fill="#C0CBB2" transform="translate(18,10)"/>
<path d="M0 0 C1.9375 0.3125 1.9375 0.3125 4 1 C4.33 1.99 4.66 2.98 5 4 C5.99 4 6.98 4 8 4 C8 4.66 8 5.32 8 6 C6.35 6 4.7 6 3 6 C2.67 6.99 2.34 7.98 2 9 C0.35 9 -1.3 9 -3 9 C-3 8.34 -3 7.68 -3 7 C-2.34 6.67 -1.68 6.34 -1 6 C-0.34227572 2.97065509 -0.34227572 2.97065509 0 0 Z " fill="#5CA99E" transform="translate(14,3)"/>
<path d="M0 0 C0.33 0 0.66 0 1 0 C1 2.31 1 4.62 1 7 C-1.64 7 -4.28 7 -7 7 C-7 7.66 -7 8.32 -7 9 C-6.34 9 -5.68 9 -5 9 C-5 9.99 -5 10.98 -5 12 C-7.31 12.33 -9.62 12.66 -12 13 C-10.68 12.67 -9.36 12.34 -8 12 C-8 11.34 -8 10.68 -8 10 C-8.66 10 -9.32 10 -10 10 C-10.33 8.68 -10.66 7.36 -11 6 C-7.37 6 -3.74 6 0 6 C0 4.02 0 2.04 0 0 Z " fill="#125B59" transform="translate(28,17)"/>
<path d="M0 0 C1.65 0.33 3.3 0.66 5 1 C2.25 6.875 2.25 6.875 0 8 C0.33 9.32 0.66 10.64 1 12 C-0.5 10.875 -0.5 10.875 -2 9 C-2.42478586 4.92205575 -2.31282587 3.46923881 0 0 Z " fill="#155F5E" transform="translate(4,15)"/>
<path d="M0 0 C0 2.97 0 5.94 0 9 C-0.99 9 -1.98 9 -3 9 C-3 8.34 -3 7.68 -3 7 C-2.34 7 -1.68 7 -1 7 C-1 6.01 -1 5.02 -1 4 C-3.64 4 -6.28 4 -9 4 C-3.7826087 0 -3.7826087 0 0 0 Z " fill="#E1E1C3" transform="translate(28,13)"/>
<path d="M0 0 C2.64 0 5.28 0 8 0 C8 0.99 8 1.98 8 3 C5.36 3.33 2.72 3.66 0 4 C0 2.68 0 1.36 0 0 Z " fill="#7D9F90" transform="translate(19,17)"/>
<path d="M0 0 C0.33 0.99 0.66 1.98 1 3 C4.63 3 8.26 3 12 3 C12 3.33 12 3.66 12 4 C8.7 4.33 5.4 4.66 2 5 C2 5.99 2 6.98 2 8 C2.66 8.33 3.32 8.66 4 9 C2.68 9 1.36 9 0 9 C-1.10844919 5.67465243 -0.84454356 3.37817425 0 0 Z " fill="#64A094" transform="translate(16,19)"/>
<path d="M0 0 C0.33 0.66 0.66 1.32 1 2 C1.99 2.33 2.98 2.66 4 3 C1.36 3 -1.28 3 -4 3 C-4 5.31 -4 7.62 -4 10 C-4.33 9.01 -4.66 8.02 -5 7 C-6.32 7 -7.64 7 -9 7 C-9 6.34 -9 5.68 -9 5 C-8.01 4.67 -7.02 4.34 -6 4 C-5.67 3.34 -5.34 2.68 -5 2 C-3.35 2 -1.7 2 0 2 C0 1.34 0 0.68 0 0 Z " fill="#387B75" transform="translate(22,7)"/>
<path d="M0 0 C1.32 0.33 2.64 0.66 4 1 C4 2.98 4 4.96 4 7 C3.34 7 2.68 7 2 7 C2 5.68 2 4.36 2 3 C1.34 3 0.68 3 0 3 C0 2.01 0 1.02 0 0 Z " fill="#35726D" transform="translate(26,10)"/>
<path d="M0 0 C1.32 0 2.64 0 4 0 C4.33 0.99 4.66 1.98 5 3 C4.01 3.66 3.02 4.32 2 5 C1.34 4.34 0.68 3.68 0 3 C0 2.01 0 1.02 0 0 Z " fill="#5C8A80" transform="translate(19,11)"/>
</svg>
